<svg xmlns="http://www.w3.org/2000/svg" xmlns:xlink="http://www.w3.org/1999/xlink" version="1.1" id="&#1057;&#1083;&#1086;&#1081;_1" x="0px" y="0px" viewBox="5.0 -10.0 100.0 135.0" enable-background="new 0 0 100 100" xml:space="preserve" height="100px" width="100px">
<path d="M28.3,25.5C13.1,34.4-0.9,56.6,12.7,73C18.9,80.4,28,83,37.3,84.2c11.5,1.5,23.7,1.1,34.3-3.7c1.6-0.7,1.6-2.2,0.8-3.3  c7.3-6.6,13.9-13.7,17.8-22.9c3.7-8.9,3.3-20.2-2.9-27.9C72.3,8.2,45.7,15.4,28.3,25.5z M84.3,55.4c-4,8.5-11.6,15.1-18.6,21.1  c-0.5,0.4-0.7,0.8-0.8,1.3c-7.5,2.3-15.4,2.3-23.3,1.8c-8.4-0.5-17.2-2.2-23.5-8.1c-6.3-5.8-6.5-15.2-4.1-22.9  c2.7-8.8,10.6-15.2,18.2-19.7c14.9-8.7,37.3-14.6,50.6-0.2C89.5,36.1,88.1,47.2,84.3,55.4z"/>
<path d="M37.7,34.7c-1.4,2.9,2.9,5.4,4.3,2.5c2.1-4.5,8.6-4.1,12.4-2.2c6.6,3.3,1.9,9.2-1.8,12.1c-4.1,3.1-6.8,7.5-4.6,12.6  c1.3,2.9,5.6,0.4,4.3-2.5c-1.8-4,7.5-9,9.4-12.3c2.1-3.6,0.7-8.3-1.7-11.4C55,27,41.4,26.8,37.7,34.7z"/>
<path d="M50.1,66.2c-3.2,0-3.2,5,0,5S53.3,66.2,50.1,66.2z"/>
<text x="0.0" y="117.5" font-size="5.0" font-weight="bold" font-family="Helvetica Neue, Helvetica, Arial-Unicode, Arial, Sans-serif" fill="#000000">Created by Arthur Shlain</text><text x="0.0" y="122.5" font-size="5.0" font-weight="bold" font-family="Helvetica Neue, Helvetica, Arial-Unicode, Arial, Sans-serif" fill="#000000">from the Noun Project</text></svg>